<svg width="170" height="32" viewBox="0 0 170 32" fill="none" xmlns="http://www.w3.org/2000/svg">
<path d="M8.99201 22.8832C8.96188 23.0351 8.94682 23.2327 8.94682 23.4758C8.94682 24.0228 9.09744 24.4179 9.39868 24.661C9.73004 24.9041 10.2572 25.0256 10.9802 25.0256H13.7365L12.5617 31.6353H8.63052C3.56969 31.6353 1.03928 29.4929 1.03928 25.208C1.03928 24.5698 1.11459 23.7645 1.26521 22.792L3.07265 12.6724H0L1.12965 6.19943H4.2023L5.28676 0H13.0136L11.9291 6.19943H16.9899L15.8603 12.6724H10.7994L8.99201 22.8832Z" fill="#FF006B"/>
<path d="M28.3881 32C26.2192 32 24.2912 31.5594 22.6043 30.6781C20.9173 29.7968 19.6069 28.5508 18.6731 26.9402C17.7694 25.3295 17.3175 23.4606 17.3175 21.3333C17.3175 18.4463 17.9953 15.8177 19.3509 13.4473C20.7065 11.0769 22.5742 9.22317 24.954 7.88604C27.3337 6.51852 29.9847 5.83476 32.9067 5.83476C35.0756 5.83476 37.0035 6.2906 38.6905 7.20228C40.4076 8.08357 41.733 9.32953 42.6669 10.9402C43.6007 12.5508 44.0676 14.4198 44.0676 16.547C44.0676 19.4644 43.3748 22.1083 41.9891 24.4786C40.6335 26.8186 38.7507 28.6572 36.3408 29.9943C33.961 31.3314 31.3101 32 28.3881 32ZM29.4725 25.2991C30.7378 25.2991 31.8674 24.9193 32.8615 24.1595C33.8857 23.3694 34.6689 22.3666 35.2112 21.151C35.7835 19.905 36.0697 18.6135 36.0697 17.2764C36.0697 15.7569 35.663 14.5869 34.8497 13.7664C34.0363 12.9459 33.0121 12.5356 31.777 12.5356C30.4817 12.5356 29.337 12.9307 28.3429 13.7208C27.3789 14.4805 26.6258 15.4834 26.0836 16.7293C25.5414 17.9753 25.2703 19.2821 25.2703 20.6496C25.2703 22.1387 25.6619 23.2934 26.4451 24.114C27.2283 24.9041 28.2375 25.2991 29.4725 25.2991Z" fill="#FF006B"/>
<path d="M82.3274 5.92592C85.0386 5.92592 87.1473 6.65527 88.6535 8.11396C90.1898 9.54226 90.9579 11.548 90.9579 14.1311C90.9579 14.9212 90.8676 15.8025 90.6868 16.7749L88.066 31.6353H80.3844L82.8245 17.8234C82.8847 17.5195 82.9148 17.1092 82.9148 16.5926C82.9148 15.3162 82.5534 14.3438 81.8304 13.6752C81.1375 13.0066 80.1585 12.6724 78.8933 12.6724C77.3871 12.6724 76.1219 13.1282 75.0977 14.0399C74.0734 14.9212 73.4258 16.1823 73.1547 17.8234L70.7146 31.6353H63.033L65.4731 17.8234C65.5333 17.5195 65.5634 17.1092 65.5634 16.5926C65.5634 15.3162 65.2019 14.3438 64.479 13.6752C63.7861 13.0066 62.8071 12.6724 61.5419 12.6724C60.0357 12.6724 58.7705 13.1282 57.7463 14.0399C56.722 14.9212 56.0744 16.1823 55.8033 17.8234V17.5954L53.3632 31.6353H45.6364L50.0646 6.19943H57.7914L57.2492 9.4359C58.2132 8.34188 59.373 7.49098 60.7285 6.88319C62.1142 6.24501 63.6054 5.92592 65.2019 5.92592C67.1299 5.92592 68.7566 6.33618 70.082 7.1567C71.4376 7.97721 72.4016 9.16239 72.9739 10.7122C74.0885 9.28395 75.4742 8.12915 77.131 7.24786C78.7878 6.36657 80.52 5.92592 82.3274 5.92592Z" fill="#FF006B"/>
<path d="M94.193 18.8718C94.6448 16.2583 95.5335 13.9639 96.8589 11.9886C98.1844 10.0133 99.781 8.49382 101.649 7.4302C103.516 6.36657 105.489 5.83476 107.568 5.83476C109.345 5.83476 110.836 6.19943 112.041 6.92877C113.246 7.65812 114.12 8.61538 114.662 9.80057L115.295 6.19943H123.022L118.548 31.6353H110.821L111.499 28.0342C110.535 29.2194 109.315 30.1766 107.839 30.906C106.363 31.6353 104.736 32 102.959 32C101.182 32 99.6002 31.5897 98.2145 30.7692C96.8589 29.9487 95.8046 28.7939 95.0515 27.3048C94.2984 25.7854 93.9219 24.0076 93.9219 21.9715C93.9219 20.9991 94.0122 19.9658 94.193 18.8718ZM113.081 18.9174C113.171 18.3704 113.216 17.8689 113.216 17.4131C113.216 15.924 112.779 14.754 111.906 13.9031C111.062 13.0522 109.978 12.6268 108.652 12.6268C107.116 12.6268 105.715 13.189 104.45 14.3134C103.185 15.4074 102.387 16.9269 102.055 18.8718C101.965 19.4188 101.92 19.9202 101.92 20.3761C101.92 21.8651 102.342 23.0503 103.185 23.9316C104.059 24.7825 105.143 25.208 106.438 25.208C107.975 25.208 109.375 24.6458 110.641 23.5214C111.906 22.397 112.719 20.8623 113.081 18.9174Z" fill="#FF006B"/>
<path d="M134.621 22.8832C134.591 23.0351 134.576 23.2327 134.576 23.4758C134.576 24.0228 134.727 24.4179 135.028 24.661C135.359 24.9041 135.887 25.0256 136.61 25.0256H139.366L138.191 31.6353H134.26C129.199 31.6353 126.669 29.4929 126.669 25.208C126.669 24.5698 126.744 23.7645 126.895 22.792L128.702 12.6724H125.629L126.759 6.19943H129.832L130.916 0H138.643L137.558 6.19943H142.619L141.49 12.6724H136.429L134.621 22.8832Z" fill="#FF006B"/>
<path d="M154.017 32C151.849 32 149.921 31.5594 148.234 30.6781C146.547 29.7968 145.236 28.5508 144.302 26.9402C143.399 25.3295 142.947 23.4606 142.947 21.3333C142.947 18.4463 143.625 15.8177 144.98 13.4473C146.336 11.0769 148.204 9.22317 150.583 7.88604C152.963 6.51852 155.614 5.83476 158.536 5.83476C160.705 5.83476 162.633 6.2906 164.32 7.20228C166.037 8.08357 167.362 9.32953 168.296 10.9402C169.23 12.5508 169.697 14.4198 169.697 16.547C169.697 19.4644 169.004 22.1083 167.618 24.4786C166.263 26.8186 164.38 28.6572 161.97 29.9943C159.59 31.3314 156.939 32 154.017 32ZM155.102 25.2991C156.367 25.2991 157.497 24.9193 158.491 24.1595C159.515 23.3694 160.298 22.3666 160.841 21.151C161.413 19.905 161.699 18.6135 161.699 17.2764C161.699 15.7569 161.292 14.5869 160.479 13.7664C159.666 12.9459 158.641 12.5356 157.406 12.5356C156.111 12.5356 154.966 12.9307 153.972 13.7208C153.008 14.4805 152.255 15.4834 151.713 16.7293C151.171 17.9753 150.9 19.2821 150.9 20.6496C150.9 22.1387 151.291 23.2934 152.074 24.114C152.858 24.9041 153.867 25.2991 155.102 25.2991Z" fill="#FF006B"/>
</svg>
